<?xml version="1.0" encoding="utf-8"?>
<!-- Generator: Adobe Illustrator 18.0.0, SVG Export Plug-In . SVG Version: 6.00 Build 0)  -->
<!DOCTYPE svg PUBLIC "-//W3C//DTD SVG 1.1//EN" "http://www.w3.org/Graphics/SVG/1.1/DTD/svg11.dtd">
<svg version="1.1" id="Layer_1" xmlns="http://www.w3.org/2000/svg" xmlns:xlink="http://www.w3.org/1999/xlink" x="0px" y="0px"
	 viewBox="0 0 750 750" enable-background="new 0 0 750 750" xml:space="preserve">
<g>
	<path fill="#E7E2E7" d="M425.6,561.1c-4.7-7-9.7-18.3-13.8-29c-0.6-1.6,1.5-2.9,2.6-1.5c7.8,9.7,17.4,18.9,28.2,23.7
		c3.2,1.4,6.6,2.6,10,3.4c-2.7,8-5.3,15.9-8,23.8C437.1,576.1,430.9,568.9,425.6,561.1z M476.7,538.7c-2.3,6.8-13.3,39.5-16.9,50.2
		c9.7,2.7,20.2,2.1,28.8-3c8-4.8,13.8-14.5,11.3-23.4C498.9,559,484.5,546.5,476.7,538.7z M289,535.1c1.8-0.5,3.5-1.2,5.3-1.9
		c9.3-10.2,17.4-21.7,24-33.5c0.8-1.5-0.5-3.3-2.2-2.9c-12.5,2.8-25.4,4-38.3,3.6c-2.7,1.6-5.3,3.4-7.7,5.4
		c-5.6,4.7-10.8,11.2-8,19.3c0.9,2.5,2.4,4.8,4.4,6.5C272.8,537,281.4,537.3,289,535.1z M452.6,493c6.7,1.8,13.7,3.1,20.7,3.9
		c7.6-22.1,15.3-44.3,23.2-66.7c-0.7,0.1-1.5,0.1-2.2,0.2c-12.9,1-29.6,2.2-46.3,3.4c-10.1,6.5-19,8.7-30.8,11.3
		C427.8,461.6,438.3,479.6,452.6,493z M528,431.6c-4.4-1.2-8.9-1.8-13.5-2c-8.1,22.9-16,45.6-23.8,68.1c5.8-0.1,11.5-0.4,17.2-1.1
		c11.7-1.4,23.6-4.7,32.7-12.2c9.1-7.5,14.8-20,11.6-31.4C549.2,442.2,538.9,434.6,528,431.6z M316.7,414.6
		c-10.8-5.2-21.1-11.6-30.5-19.1c-4.2-3.4-8.9-7.1-13.9-8.6c-2.7,15.9-4.3,25.7-6.5,41.6c2.3,4.5,7.1,9,10.8,11.5
		c5.6,3.8,12.7,9.2,21.7,9.8c11.1-3.1,26.7-12.6,37.4-22.2C328.6,424.7,322.1,420.2,316.7,414.6z"/>
	<path fill="#EFA5C4" d="M402,495.7c-20.2-10.3-42.9-16.8-66.5-18.9c1.5-3.5,2.9-7,4.3-10.5c21.3,1.4,42.2,6.3,61.2,14.3
		C401.2,485.7,401.6,490.7,402,495.7z"/>
	<path fill="#AEDDD6" d="M341.4,461.7c3-8.4,5.6-17,7.7-25.8c3.2,1.1,6.4,2.2,9.6,3.2c0.2,3.8,1.9,7.4,4.7,10
		c4.4,3.9,11.2,4.7,16.4,1.9c2.4-1.3,4.4-3.4,5.6-5.9c4.7,0.6,9.4,0.8,14.1,0.8c0.1,9.8,0.5,19.7,1,29.5
		C382.2,467.9,362,463.2,341.4,461.7z"/>
	<path fill="#A7CDC3" d="M418.6,607.2c0.5,2.1-0.2,4.2-1.7,5.7c-6.9,6.8-17.3,15.9-26.4,15.1c-9.4-0.8-23.4-26.7-51.8-38.9
		c-10.8-4.6-48.1-18.9-65.1-22.1c-1.1-0.2-1.5-1.5-0.6-2.3c25.6-23.3,46.3-51.9,60.6-83.3c24.5,2,48.2,8.7,68.9,19.8
		C405.4,536.9,410.8,572.3,418.6,607.2z"/>
	<path fill="#AC6A4E" d="M248.5,432.5c-29.9,5.3-61.6-0.7-87.9-15.8c-25.4-14.6-47.8-45.3-79.1-47.2c-5.1-0.3-8.3-5.6-6.2-10.3
		c6.3-14.3,16.7-26.9,29.7-35.6c19.9-13.4,42-14.6,65.2-13.6c38,1.6,76.4-10.3,107-33C269.1,312.1,249,429.2,248.5,432.5z
		 M396.1,234.4c-9.7-10.5-26.9-17.6-40.9-14.7c-14.1,2.8-26.5,11-37.4,20.4c-6.7,5.8-13,12.2-19.4,18.4
		c-9.6,39.9-17.9,80.3-24.8,120.7c5.5,1,11.2,3.3,15.7,6.5c2.1,1.5,4.9-0.4,4.3-2.9c-4.1-18.3-2-38.1,7.9-51
		c11.6-15,34.9-20.1,51.9-26c12.1-4.2,26.1-10,36.7-25.3C397.2,261.5,400.4,247.4,396.1,234.4z M472.1,388.3
		c2.8-5.2,12.3-10.5,21.9-8.5c5.8,1.2,14.1,6.8,14.4,12.7c1.1-1.4,2.1-2.9,3.2-4.4c5.3-14.6,10.6-29.3,16-44
		c1.4-14.4-0.2-29.4-4.7-44.4c-9.8-32.8-36.1-60.2-68.4-71.6c-17.4-6.1-38.4-5.6-54.2,3.8c5.3,14.9,1.7,30.6-6.5,51.9
		c0,0.1-0.1,0.1-0.2,0.2C396,332.9,426.4,366.5,472.1,388.3z"/>
	<path fill="#EF9DBA" d="M327,379.9c-1.3,2.5-6.6,2.3-11.8-0.4c-5.2-2.7-8.4-6.9-7.1-9.4c1.3-2.5,6.6-2.3,11.8,0.4
		C325.2,373.1,328.3,377.4,327,379.9z M423.6,399.7c-5.9,0.4-10.5,2.9-10.3,5.8c0.2,2.8,5.1,4.8,10.9,4.5c5.9-0.4,10.5-2.9,10.3-5.8
		C434.3,401.3,429.4,399.3,423.6,399.7z"/>
	<path fill="#F4878C" d="M352.6,396.6c9,2.1,18,4.2,26.9,6.4c1.4,0.3,2,2.1,1.1,3.2c-4.1,5.2-11.4,8.3-17.9,7.3
		c-6.4-1-10.6-7.8-12.5-14.4C349.7,397.6,351.1,396.3,352.6,396.6z"/>
	<path fill="#B28D70" d="M368,618.3c-13.9,4.1-28.7,13.8-37.1,25.2c-5.7,7.8-10.6,16.5-15.3,24.9c-3.9,6.9-7.9,14-12.4,20.7
		c-3.4,5.1-7.3,10.2-13,13.3c-2.8,1.5-6.2,2.5-9.7,2.5c-3.6,0-7.2-1.1-10.2-3.7c-6.4-5.6-6.3-15-5.7-21.7c2.1-21.8,9.3-41,18.6-57.4
		c-10.6,5.7-21.9,10.2-32.3,14.4c-2.6,1-5.2,2.1-7.7,3.1c-1.7,0.7-3.3,1.4-4.8,2c-9.6,4-18.1,7.6-28.4,7.6c-2.9,0-5.9-0.3-9.1-0.9
		c-8.2-1.6-16.6-9.1-15.8-18.5c0.8-9.2,9.6-14.8,14.4-17.8l66.7-42.5c2.7,0.5,6,1.2,9.7,2.2l-72.6,46.2c-2.3,1.5-4.7,3.1-6.7,4.9
		c0.1,2.2,0.5,4.4,1.4,6.5c3.5,8.2,14.3,10.1,23.3,11.1c4.7-1.3,9.3-3.2,14.4-5.4c1.6-0.7,3.2-1.4,4.9-2c2.5-1,5.1-2,7.8-3.1
		c14.3-5.7,30.5-12.1,43.5-21.4c6.5-9.3,13.6-17.6,20.4-24.7c2.5,0.9,5,1.9,7.3,2.7c-7.3,7.3-15,16.1-22,26.1
		c-0.1,0.2-0.3,0.4-0.4,0.6c-12.5,18.2-22.8,40.6-25.4,66.9c-0.2,2.2-0.3,4.1-0.2,5.8c6.7,4.6,16,6.1,23,3c1-1.3,1.9-2.6,2.8-4
		c4.3-6.5,8.3-13.5,12.1-20.2c4.8-8.6,9.8-17.5,15.8-25.6c8.6-11.7,22.8-21.7,37-26.7C364.3,614.6,366.2,616.5,368,618.3z
		 M453.1,550.4c0.6,0.2,1.2,0.4,1.8,0.6c0.8-2.2,1.5-4.5,2.3-6.7c-0.5-0.2-1-0.3-1.5-0.5c-17.6-6.9-32.6-20-48.2-42.1
		c0.5,4.8,1.2,9.6,1.8,14.4C420.1,529.5,434.1,543,453.1,550.4z M432.3,492.1c-11.3-14.1-20.9-29.5-28.7-45.6c2.5-0.1,5-0.4,7.5-0.7
		c7.4,14.8,16.3,28.9,26.7,41.9c6.2,7.8,13,15.2,20.2,22.1c1.2,1.1,2.4,2.2,3.6,3.3c1.5,1.4,3.1,2.8,4.7,4.4
		c-0.9,2.5-1.7,5.1-2.6,7.6c-2-2.4-4.4-4.5-6.8-6.8c-1.3-1.2-2.5-2.3-3.8-3.5C445.7,507.8,438.7,500.1,432.3,492.1z M304.1,452.9
		c13.6-4.9,25.9-12.5,36.1-22.1c2.3,1.5,3.7,3.3,3.6,6.3c-10.7,9.8-23.4,17.5-37.3,22.5c-8.5,3.1-17.3,5.1-26.1,6
		c-1.6,0.2-3.2,0.3-4.9,0.4c-5,0.4-10.4,0.8-15,2.1c0.3-2.5,0.6-5,0.9-7.5c4.4-0.9,9.1-1.3,13.5-1.7c1.7-0.1,3.3-0.3,4.8-0.4
		C288,457.6,296.2,455.7,304.1,452.9z M327.4,480.5c-1.4,2.9-2.9,5.8-4.4,8.7c-10.9,3-25.1,5.8-40,5.8c-7.1,0-14.4-0.6-21.5-2.2
		c-1.3-0.3-2.5-0.6-3.6-0.9c0.3-2.4,0.5-4.8,0.8-7.2c1.3,0.5,2.7,0.9,4.3,1.2C286.7,491,312.3,485.2,327.4,480.5z M507.2,401.5
		c0,6.6-3,13.4-8.4,18.5c-9.8,9.4-26.9,7-39,0c-17.9,12.6-41.1,19.4-64.6,19.4c-9.5,0-19-1.1-28.2-3.3
		c-29.8-7.1-52.9-24.6-65.1-49.1c-3-6-5.3-12.5-6.8-19.1c0.2-6.3,1.1-12.8,2.9-18.9c0.3-1.1,2-0.9,2,0.2c0.2,12,3,23.9,8.3,34.6
		c11.2,22.6,32.7,38.7,60.4,45.4c31.3,7.5,65.4,1.3,89-16.3c1.2-0.9,2.8-0.9,4.1-0.1c9.8,6.5,25,9.2,32.3,2.1
		c4-3.8,6.2-8.7,6.2-13.4c0-4.9-2.8-9.5-6.8-11.3c-3.9-1.7-9.2-0.1-11.1,3.3c-1,1.9-3.5,2.5-5.3,1.1c-1.5-1.1-1.7-3.2-0.8-4.8
		c3.7-6.5,12.8-9.4,20-6.2C502.7,386.7,507.2,393.8,507.2,401.5z M420.8,384.6c0,5.7-4.6,10.3-10.3,10.3c-5.7,0-10.3-4.6-10.3-10.3
		c0-5.7,4.6-10.3,10.3-10.3C416.2,374.3,420.8,378.9,420.8,384.6z M345.1,363.7c0,5.7-4.6,10.3-10.3,10.3c-5.7,0-10.3-4.6-10.3-10.3
		c0-5.7,4.6-10.3,10.3-10.3C340.5,353.4,345.1,358,345.1,363.7z"/>
	<path fill="#EFA288" d="M425.6,639.1c-10.8,7.3-21.6,14.7-32,22c-14.1-9.2-28.2-18.4-42.3-27.6c5.7-4,14.3-8.3,21.4-7.7
		c5.1,6,10.3,10.4,17.6,10.1c7.3-0.3,13.6-2,19.2-6.7c5.6-4.7,11.3-10.5,15.8-16.3c-0.3-1.8-1.3-4.1-2.1-6.2
		c-0.3-0.9,0.7-1.6,1.4-1.2c3.4,2.1,6.7,4.2,10,6.3C431.5,621,428.5,630.1,425.6,639.1z M254.6,571.6l-18.4-9.6
		c-1.4-0.8-3.2,0.1-3.5,1.7c-0.2,1-0.3,1.8-0.5,2.7c-0.5,2.4,0.7,4.9,2.8,6.1c3.8,2.1,8.5,4.8,11.3,6.3L254.6,571.6z M391.7,664.3
		L345.9,635c0,0-7.7,4.5-10.5,8.2c19.2,12.1,33.7,21.1,52.1,32.7c1.3,0.8,3,0,3.2-1.5L391.7,664.3z M423,645l-26.6,18.9l-0.9,9.3
		c-0.2,1.7,1.8,2.8,3.2,1.9c6.4-4.4,12.9-8.7,19.3-13c1.8-5.5,3.7-11.1,5.5-16.7C423.6,645.1,423.3,644.8,423,645z M446.5,629.2
		c-1.3,1.1-2.3,1.8-3.4,2.8c-1.9,6.7-3.1,11.6-4.8,16.7c2.2-1.4,3-2.2,3.2-2.4c1.8-1.2,3.1-3,3.7-5.1c1-3.4,1.8-6.3,2.7-9.6
		C448.1,630.4,447.4,629.5,446.5,629.2z M286.7,542c-4.1,0-12.6-1.5-17.7-3c-1.6-0.5-3.4-0.3-4.9,0.4c-9,4.6-16,9.3-24.6,13.9
		c-2.1,1.1-2,4.1,0.1,5.2c6,3,13.2,6.7,18.5,9.2C268.5,559.3,277.6,552.2,286.7,542z"/>
	<path fill="#EFA5C4" d="M573.2,175.7c7.9,0.4,14.2,4.8,14.3,4.8c-0.6,3.6,0.2,8.2,2.3,11.3c-3.8,4.3-8.7,7.2-13.6,7.9
		c-5.6,0.8-11.3-1.2-14.6-5.2c-3.3-4.1-3.6-10.4-0.6-14.2C563.5,177.1,568.2,175.4,573.2,175.7z M578.9,147.2
		c-4.7,2.9-7.3,8.8-6.2,14.2c1.9,9.1,12.1,13.3,16.6,14.8c1.3-2.1,3.1-3.9,5.3-5.2c2.4-1.4,5-2.1,7.6-2.2
		c-0.7-8.2-2.1-16.1-7.8-20.6C590.1,144.8,583.7,144.7,578.9,147.2z M625.7,207.8c4.3,0.1,8.6-2.3,10.6-6c2.1-3.7,1.8-8.6-0.6-12
		c-1.9-2.7-5.3-4.7-9.4-5.6c-3.1-0.7-6.4-0.7-9.9-0.6c-0.4,4.4-2.6,8.6-6.2,11.5c1.6,3.4,3.5,6.2,5.7,8.3
		C618.8,206.1,622.4,207.7,625.7,207.8z M606.9,216.6c2.8-5.3,2.7-12.4-0.3-19.2c-4.1,1.2-9.7,0.1-12.2-1.4
		c-1.8,0.3-9.2,8.4-10.1,13.6c-0.9,5.7,1.9,11.5,6.6,13.5C596.3,225.5,603.7,222.4,606.9,216.6z M630.9,153.6
		c-3.2-3.1-8.1-4.3-12.5-3.2c-7.7,1.9-11.9,9.1-12.8,18.7c3.7,1.1,6.9,3.5,9.1,7.1c0.5,0.8,0.9,1.7,1.2,2.6
		c6.9-2.2,15.8-5.4,18.2-13C635.4,161.6,634.1,156.8,630.9,153.6z M377.9,106.4c6.2,4.5,8.9,11.4,8.9,11.4
		c-2.4,2.6-4.1,6.7-4.1,10.3c-5.3,1.4-10.8,1.2-15.1-0.8c-5-2.3-8.5-7-9-11.9c-0.5-5.1,2.6-10.2,7-11.7
		C369.4,102.4,374,103.5,377.9,106.4z M397.5,86.5c-5.3-0.2-10.5,3.3-12.5,8.2c-3.3,8.3,2.7,17.1,5.6,20.6c2.1-1,4.5-1.5,7-1.4
		c2.7,0.1,5.1,0.9,7.3,2.2c3.8-6.9,6.8-14.1,4.6-20.7C407.8,90.4,402.7,87,397.5,86.5z M403.2,159.9c3.4,2.4,8.1,2.7,11.7,0.8
		c3.6-1.9,6-6,5.8-10c-0.1-3.2-1.8-6.5-4.6-9.4c-2.1-2.2-4.8-3.9-7.6-5.7c-2.7,3.4-6.6,5.6-11,6c-0.5,3.6-0.5,6.9,0.2,9.7
		C398.5,154.9,400.6,158,403.2,159.9z M383.5,157c5.1-2.8,8.7-8.6,9.9-15.6c-4-1.2-7.8-5-9.1-7.5c-1.6-0.7-11.8,1.8-15.2,5.6
		c-3.7,4.1-4.5,10.2-1.8,14.4C370.2,158.6,377.9,160,383.5,157z M435.9,119.1c-0.9-4.1-4.2-7.7-8.4-9.2c-7.2-2.5-14.3,1.1-20.1,8.3
		c2.3,2.9,3.7,6.5,3.6,10.5c0,0.9-0.2,1.8-0.4,2.7c6.7,1.9,15.6,4,21.5-0.9C435.4,127.9,436.9,123.3,435.9,119.1z"/>
	<path fill="#F1BC7B" d="M607.7,193c-5.4,3.2-12.3,1.5-15.5-3.9c-3.2-5.4-1.5-12.3,3.9-15.5c5.4-3.2,12.3-1.5,15.5,3.9
		C614.8,182.9,613.1,189.8,607.7,193z M564.8,136.2c0-5.4-4.4-9.8-9.9-9.8s-9.8,4.4-9.8,9.9c0,5.4,4.4,9.8,9.9,9.8
		S564.8,141.6,564.8,136.2z M527,195.8c-1.1-5.9-6.8-9.8-12.7-8.7c-5.9,1.1-9.8,6.8-8.7,12.7c1.1,5.9,6.8,9.8,12.7,8.7
		C524.2,207.4,528.1,201.7,527,195.8z M407.9,128.1c0.2-6-4.4-11.1-10.4-11.3c-6-0.2-11.1,4.4-11.3,10.4c-0.2,6,4.4,11.1,10.4,11.3
		C402.5,138.8,407.6,134.1,407.9,128.1z M338.5,137.9c-2-5.7-8.2-8.6-13.9-6.6c-5.7,2-8.6,8.2-6.7,13.9c2,5.7,8.2,8.6,13.9,6.7
		C337.5,149.8,340.5,143.5,338.5,137.9z"/>
	<path fill="#A5C3E0" d="M528.5,137c-4.6-1.9-7.9-6-8.6-10.4c-0.6-4.6,1.9-9.3,5.9-10.9c3.3-1.3,7.5-0.4,11.1,2
		c5.7,3.8,8.5,9.9,8.5,10c-2.1,2.4-3.5,6.3-3.3,9.5C537.4,138.7,532.5,138.7,528.5,137z M567.7,136.6c0,0.8-0.1,1.7-0.2,2.5
		c4.6,1.1,10.3,2.2,15,0.8c-1.5-3.5-1.9-7.6-1.1-11.3c0.6-3,1.8-5.7,3.2-8.4c-0.8-0.5-1.7-0.9-2.7-1.2c-6.6-2-12.9,1.5-17.9,8.3
		C566.3,129.8,567.7,133,567.7,136.6z M543.7,142.3c-1.5-0.6-10.6,2.1-13.5,5.6c-3.2,3.8-3.7,9.4-1.1,13c2.9,4.2,9.9,5.2,14.8,2.2
		c4.5-2.7,7.5-8.1,8.3-14.4C548.6,147.9,545,144.5,543.7,142.3z M565,106.6c-1.7-4.5-6.4-7.4-11.2-7.6c-4.8,0-9.4,3.4-10.9,7.9
		c-2.6,7.6,3.1,15.3,5.8,18.4c1.9-0.9,4-1.5,6.3-1.5c2.4,0,4.7,0.7,6.7,1.7C564.8,119.1,567.3,112.5,565,106.6z M569.8,163.8
		c-1.5-5.4-0.2-11.4,3.2-15.8c-0.1-0.1-0.2-0.2-0.2-0.3c-2-1.9-4.5-3.4-7.1-4.8c-2.3,3.1-5.7,5.3-9.7,5.8c-0.3,3.2-0.2,6.2,0.6,8.7
		c1,3.3,2.9,6,5.4,7.6c2.6,1.7,5.9,1.9,8.8,1C570.3,165.3,570,164.6,569.8,163.8z M492.9,181.4c7,3,11.2,9.1,11.3,9.1
		c-1.8,3-2.5,7.5-1.7,11c-4.8,2.6-10.2,3.6-14.9,2.6c-5.4-1.1-9.8-4.9-11.4-9.5c-1.6-4.8,0.2-10.5,4.2-13
		C483.8,179.5,488.5,179.6,492.9,181.4z M507.5,157.7c-5.2,1-9.5,5.6-10.3,10.8c-1.3,8.8,6.5,16,10.1,18.8c1.9-1.4,4.1-2.5,6.5-2.9
		c2.6-0.5,5.2-0.2,7.6,0.5c2.1-7.6,3.4-15.3-0.2-21.2C518.5,159.2,512.7,157,507.5,157.7z M529.6,227.9c3.8,1.5,8.5,0.8,11.6-1.8
		c3.1-2.6,4.5-7.2,3.4-11c-0.9-3.1-3.2-6-6.7-8.1c-2.6-1.6-5.5-2.7-8.7-3.8c-1.8,3.9-5.2,6.9-9.4,8.3c0.3,3.6,1.1,6.8,2.4,9.4
		C524,224.1,526.7,226.7,529.6,227.9z M509.8,229.5c4.3-3.8,6.5-10.3,6.1-17.4c-4.1-0.3-8.7-3.2-10.6-5.3
		c-1.7-0.3-11.1,4.5-13.6,8.9c-2.7,4.8-2.1,11,1.4,14.4C497.2,234,505,233.7,509.8,229.5z M552.3,180.7c-1.8-3.8-5.9-6.6-10.2-7.1
		c-7.6-0.8-13.7,4.3-17.7,12.7c2.9,2.3,5.1,5.5,5.8,9.4c0.2,0.9,0.2,1.8,0.2,2.7c6.9,0.3,16.1,0.4,20.8-5.7
		C553.8,189.4,554.2,184.6,552.3,180.7z M329.9,155.7c1.5,6.9,0.3,13.7-3.4,18.1c-4.1,4.9-11.7,6.4-16.3,3.1c-4-2.8-5.5-8.9-3.6-14
		c1.8-4.7,10.3-10.9,12.1-10.8C320.8,153.9,325.8,156,329.9,155.7z M315.1,136.1c0,0-5.1-5.4-12.5-7.3c-4.7-1.2-9.3-0.5-12.3,2
		c-3.6,3.1-4.5,9-2.2,13.5c2.3,4.4,7.3,7.4,12.7,7.7c4.8,0.3,9.9-1.5,14.3-4.8C313.8,143.9,313.8,139.4,315.1,136.1z M313.4,103.1
		c-5,1.8-8.6,6.9-8.5,12.2c0,8.9,8.9,14.9,12.8,17.1c1.6-1.7,3.6-3.1,6-3.9c2.5-0.9,5.1-1,7.6-0.6c0.9-7.8,1.1-15.6-3.4-20.9
		C324.4,102.9,318.5,101.6,313.4,103.1z M360.2,128.4c-3.3-3.8-5.2-8.8-5.2-13.8c-1.6-0.6-3.3-0.9-5-0.9
		c-7.7,0.3-12.9,6.3-15.6,15.2c3.2,1.8,5.9,4.7,7.2,8.4c0.3,0.9,0.5,1.8,0.6,2.7c6.9-0.8,15.9-2,19.7-8.8c0.1-0.3,0.2-0.6,0.3-0.9
		C361.5,129.7,360.9,129.1,360.2,128.4z M346.4,159.7c1.6-4.2,3.9-8,6.3-11.7c-0.6-0.3-1.1-0.6-1.7-0.9c-2.8-1.2-5.9-1.9-9.2-2.4
		c-1.2,4.1-4.1,7.6-8,9.6c0.9,3.5,2.1,6.5,3.8,8.9c1.8,2.5,4.3,4.4,6.9,5.4C344.6,165.6,345.3,162.6,346.4,159.7z"/>
	<path fill="#F1BC7B" d="M570.9,263.4c-54.1,139.5-100.2,276.4-142.1,404.2c-0.5,1.6-2,2.5-3.5,2.5c-0.3,0-0.7-0.1-1-0.2
		c-1.9-0.6-2.9-2.7-2.3-4.6c42.1-128.3,88.4-265.8,142.8-406c0.2-0.5,0.9-0.6,1.2-0.2C567.7,261,569.6,262.4,570.9,263.4z
		 M248.2,543.3c9.2-117.5,31.2-240.1,63.8-355.7c0.2-0.7-0.5-1.4-1.2-1.2c-2,0.6-4.1,1-6.2,1.3c-32.8,116.9-54.8,240.8-63.8,359.4
		C243.2,545.8,245.7,544.5,248.2,543.3z"/>
	<path fill="#BBDEB2" d="M486.6,120.4c-5.4,9.1-24.7,22.5-40.4,22c-2.1-2.2-6.3-5.8-8.4-8c0.9-2,1.4-4,1.7-6
		c13.4-3.9,26.1-10.1,37.3-18.3c0.9-0.7,0.2-2.1-0.9-1.7c-12.1,4.3-24.5,7.6-37,9.9c-0.9-3.3-2.4-6.5-4.4-9.5
		c7.6-8,17.8-8.9,28.7-10.6c8.8-1.4,15.8-1.1,22.4-4.8c2.5-1.4,5.7,0.1,6.1,3C492.6,104.6,490.9,113.2,486.6,120.4z M374,163.7
		c-3.2,3.6-6.7,6.9-10.5,9.8c-1.1,0.9-2.7-0.3-2.1-1.7l5.1-12c-3.5-2.9-6-7.1-7-11.6c-0.2-1-1.6-1.3-2.2-0.5
		c-1.9,2.6-3.5,5.5-4.8,8.5c-3.3,8-4.1,17-2.3,25.5c0.6,2.7,2.9,4.7,5.6,4.9c13.2,0.8,26.8-6.5,33.4-18c0.7-1.3-0.1-2.9-1.6-3
		C382.9,165.2,378.3,165,374,163.7z M311.5,77.9c-0.3-0.8,0.8-1.4,1.3-0.7c3.5,4.7,7.5,9,12,12.8c0.6,0.5,1.5-0.1,1.2-0.9
		c-0.3-0.7-0.5-1.3-0.6-1.7c-1.2-4.5-1.9-9.1-2-13.8c0-1,0-2,0-3c-4.6-3.9-9.8-7.2-14.9-10.3c-1.3-0.8-3-0.5-4,0.7
		c-4,5.5-6.3,12.3-6.2,19.1c0.1,7.7,3.1,15.4,8.3,21.1c3.4-2.2,8.5-3.2,12.9-3.2c1.4,0,2.2-1.6,1.3-2.8
		C316.8,90,313.6,84.1,311.5,77.9z M472,160.4c-0.8-0.8,0.1-2.1,1.2-1.7c6.8,2.7,13.1,6.6,18.6,11.3c0.6,0.5,1.5,0.2,1.7-0.5
		c1.1-4.1,3-8.1,5.4-11c-10.8-10.3-26.9-14.6-41.4-11.4c-2.9,0.6-4.5,3.6-3.7,6.5c3.5,12.2,9.7,24.1,18.8,32.7
		c1.4-3.8,4.3-7.7,8-9.6c1.1-0.5,2.3-1,3.5-1.2c0.8-0.2,1-1.1,0.5-1.7L472,160.4z M521.9,91.6c-0.2-0.7,0.8-1,1.1-0.4
		c3,6.1,7.2,11.7,12.3,16.4c0.8,0.7,2,0.3,2.2-0.7c1.1-4.5,3.7-8.6,7.5-11.3c-7-9.2-15.1-15.7-24-22.5c-2.6-2-6.5-1-7.8,2
		c-5.9,13.2-4,29.8,5.2,41c3-2.3,6.8-3.9,10.6-4.5c1-0.2,1.5-1.4,0.9-2.2C526.1,104,523.4,97.9,521.9,91.6z"/>
	<path fill="#9DC086" d="M457,95.4c-5.6-0.8-11.4,0.4-16.5,3.1c-1,0.5-2.2-0.3-2.1-1.4c0.7-4.9,1.9-9.7,3.7-14.3
		c0.3-0.8-0.8-1.5-1.3-0.7c-5.2,7.1-8.8,15.4-10.3,24.1c-4.4-1.9-10-1.2-13.8,0.2c-0.1-8.9,3.8-20.4,9.5-27.1
		c5.1-6,12.2-10.2,19.9-12c1.7-0.4,3.5,0.4,4.4,2C455,77.1,456.8,86.2,457,95.4z M369.8,72.6c-4.6-5.5-10.6-9.7-15.9-14.5
		c-3.5-3.2-6.8-7-8.9-11.3c-1.1-2.3-4.3-2.4-5.4-0.1c-3.1,6.2-5.7,12.6-7.2,19.3c-2.1,9.2-2,19,1.7,27.7
		c3.7,8.6,11.4,15.8,20.7,17.4c0.7-2.9,2.5-6.1,4.7-8.7C350.8,92.5,345.3,80,344,67c-0.1-0.9,1.2-1.3,1.6-0.4
		c4.6,11.6,11.5,22.2,20.2,31.1c3.7-0.8,8.7,0.2,12.6,1.3C380.6,92.1,374.3,78.1,369.8,72.6z M290.4,173.3c-1.2,0.5-2.3-1-1.5-2
		l9.8-11.7c0.7-0.9,0.4-2.2-0.7-2.6c-2.8-0.9-5.5-2.1-8.1-3.4c-8.9,5.8-15.2,15.4-16.7,25.9c-0.4,2.9,1.8,5.5,4.7,5.6
		c5.5,0.2,11,0.1,16.5-0.9c4.5-0.9,8.8-2.6,12.5-5.1c-2.6-2.6-4.1-5.5-4.9-8.5c-0.4-1.4-1.9-2.1-3.2-1.4
		C296,170.7,293.2,172.1,290.4,173.3z M444.9,153.4c-1.8-6.2-5.2-11.9-9.6-16.5c-2.2,1.7-4.7,2.9-7.3,3.7c-1.4,0.4-2,2-1.3,3.3
		c3.3,5.9,6.1,12,8.5,18.3c0.4,1.1-1,1.9-1.8,1.1l-6.5-7.5c-0.8-0.9-2.2-0.6-2.6,0.5c-0.9,2.8-2.4,5.3-4.4,7.4
		c-1.7,1.7-3.6,3.1-5.7,4.2c4.9,7.3,14.2,10.7,23.1,13.2c3.3,0.9,6.6-1,7.6-4.2C447.1,169.2,447.1,161,444.9,153.4z M507.7,130.2
		c-1.8-1.8-4.3-3.4-6.7-2.8c-1.6,0.4-2.8,1.7-3.8,3c-3.3,4.2-7,10.6-8.5,15.7c4,3.5,8.6,5.3,12.2,8.6c1.1-3.9,1.7-6.3,2.2-11.8
		c0.1-0.8,1.2-0.9,1.4-0.1c0.9,3.8,1.5,7.7,1.7,11.6c4.3-1.4,9.1-1.7,13.7-1.1C518.4,144.6,514.1,136.3,507.7,130.2z M618.3,97.2
		c-0.8-2.2-3.3-3.1-5.3-2.1c-15.6,8-26.4,25.5-25.3,43c4.6,1.7,9,4.8,12.3,8.7c1.6-8.9,4.4-18.7,8-26.9c0.3-0.6,1.2-0.3,1.1,0.3
		c-2.2,10.3-3.8,22-4.4,32.7c2.4-3.5,6.9-6.1,10.9-7.3c5.2-7.1,8-15.9,7.9-24.7C623.5,112.8,621.1,104.9,618.3,97.2z M676.6,179.2
		c-6.3-3.6-12.6-7.2-18.8-10.9c-3.9-2.3-8-4.6-12.4-5.4c-1.2-0.2-2.7-0.1-4.2,0.2c-0.4,4.2-2.2,8-4.8,11.3c-0.7,0.9-0.1,2.1,1,2.2
		c7.8,0.2,15.6,1.5,22.8,4.4c1,0.4,0.6,1.9-0.4,1.8c-7-0.5-13.8-0.7-20.6-0.6c-1.1,0-1.6,1.3-0.9,2.1c2.1,2.2,3.7,4.7,4.7,8.4
		c0.9,3.6,1.2,7.3,0.8,11c1.3-0.3,2.7-0.7,3.9-1.1c5.5-2,10.4-5.1,15.3-8.3c4.5-2.9,9.1-5.8,13.6-8.8
		C679.2,184.1,679.1,180.6,676.6,179.2z M592.1,227.4c-3.7-1.2-6.8-3.6-9.1-6.6c-0.7-0.9-2.1-0.7-2.5,0.4c-1.7,4.9-3.1,9.8-4.1,14.9
		c-0.2,0.7-1.2,0.7-1.4,0c-1.5-9.3-1.3-18.8,0.3-28c0.2-0.9-0.5-1.7-1.4-1.7c-3.9,0.1-7.8-0.9-11.2-2.7c-1.3-0.7-2.5-1.5-3.6-2.5
		c-3.5,8.7-4.5,18.5-2.5,27.7c2.5,11.1,9.3,21.2,18.5,27.9c2.3,1.7,5.6,1,7.1-1.4c2.9-4.5,8.1-7.8,12-11.8c3.7-3.8,7.9-8.9,7.9-15.5
		C598.9,228.6,595.4,228.4,592.1,227.4z"/>
</g>
</svg>
